<svg width="54" height="38" viewBox="0 0 54 38" fill="none" xmlns="http://www.w3.org/2000/svg">
<g id="Logo">
<g id="noun_Running_1473810">
<g id="Group">
<path id="Path" d="M20.0314 31.9273C20.0314 31.5671 19.9082 31.2285 19.657 30.9792C19.4061 30.7302 19.0669 30.6091 18.7071 30.6091H4.36341C4.00361 30.6091 3.66441 30.7302 3.41354 30.9792C3.16232 31.2285 3.03906 31.5671 3.03906 31.9273C3.03906 32.2875 3.16232 32.626 3.41354 32.8753C3.66441 33.1243 4.00361 33.2455 4.36341 33.2455H18.7071C19.5064 33.2455 20.0314 32.5831 20.0314 31.9273Z" fill="white" stroke="#191920"/>
<path id="Path_2" d="M7.66079 34.7H6.01209C5.65229 34.7 5.3131 34.8211 5.06222 35.0701C4.811 35.3195 4.68774 35.658 4.68774 36.0182C4.68774 36.3784 4.811 36.7169 5.06222 36.9662C5.3131 37.2152 5.65229 37.3364 6.01209 37.3364H7.66079C8.0206 37.3364 8.35979 37.2152 8.61067 36.9662C8.86188 36.7169 8.98514 36.3784 8.98514 36.0182C8.98514 35.658 8.86188 35.3195 8.61067 35.0701C8.35979 34.8211 8.0206 34.7 7.66079 34.7Z" fill="white" stroke="#191920"/>
<path id="Path_3" d="M12.0353 27.8364C12.0353 27.4762 11.912 27.1376 11.6608 26.8883C11.4099 26.6393 11.0707 26.5182 10.7109 26.5182H2.71473C2.35492 26.5182 2.01573 26.6393 1.76485 26.8883C1.51364 27.1376 1.39038 27.4762 1.39038 27.8364C1.39038 28.1966 1.51364 28.5351 1.76485 28.7844C2.01573 29.0334 2.35492 29.1545 2.71473 29.1545H10.7109C11.5102 29.1545 12.0353 28.4922 12.0353 27.8364Z" fill="white" stroke="#191920"/>
<g id="Shape">
<mask id="path-4-outside-1_0_4" maskUnits="userSpaceOnUse" x="2.21069" y="-0.850538" width="52" height="39" fill="black">
<rect fill="white" x="2.21069" y="-0.850538" width="52" height="39"/>
<path fill-rule="evenodd" clip-rule="evenodd" d="M52.5055 29.2273C52.2582 28.7364 51.7636 28.3273 51.269 28.0818L45.004 25.7091L42.4485 24.8091C41.7066 24.4818 41.0471 23.9909 40.6349 23.3364L38.4916 19.8182C38.9038 19.7364 39.1511 19.4091 39.1511 19C39.1511 18.5091 38.8213 18.1818 38.3267 18.1818H37.5024L36.5132 16.5455C36.9253 16.4636 37.1726 16.1364 37.1726 15.7273C37.1726 15.2364 36.8429 14.9091 36.3483 14.9091H35.5239L34.6996 13.6C35.0293 13.5182 35.2766 13.1909 35.2766 12.8636C35.2766 12.3727 34.9469 12.0455 34.4523 12.0455H33.7104L32.6387 10.3273C32.6387 10.3273 32.6387 10.2455 32.5563 10.2455C31.5671 9.1 30.2481 8.52727 28.8467 8.69091C27.6102 8.85455 26.621 9.59091 26.2088 10.4909C26.1263 10.7364 26.1263 10.9818 26.2912 11.2273L33.1333 22.8455C33.2158 23.0091 33.3806 23.1727 33.5455 23.1727L41.9539 26.3636H42.0363L44.5093 27.2636L50.692 29.6364C50.8568 29.7182 51.0217 29.8 51.1041 30.0455C51.4339 30.7 51.4339 31.3545 51.0217 32.0091H37.5848C36.7605 32.0091 35.9361 31.7636 35.2766 31.2727L12.2773 14.3364C12.2773 14.3364 12.607 14.1727 13.0192 13.6C13.4314 13.0273 13.5962 12.2909 13.5962 11.5545L12.8543 4.68182L13.8435 3.12727C14.0908 2.8 14.5855 2.71818 14.9152 2.96364C14.9333 2.98166 14.9555 3.00277 14.9819 3.02794C15.3153 3.34557 16.3273 4.30964 18.5423 7.87273C19.7789 9.67273 21.7573 10.9818 23.983 11.3091C24.3952 11.3909 24.8898 11.0636 24.9723 10.6545C25.0547 10.2455 24.725 9.75455 24.3128 9.67273C22.5816 9.34546 20.9329 8.36364 19.9437 6.89091C17.0585 2.47273 16.2341 1.81818 15.9044 1.57273C14.8328 0.836364 13.3489 1.08182 12.5246 2.14545L7.49604 10.0818C7.1663 10.5727 7.08387 11.1455 7.1663 11.7182C6.67169 11.8818 6.17708 12.1273 5.92978 12.6182L4.61082 14.6636C3.86891 15.7273 4.19865 17.2 5.2703 17.9364C5.91094 18.4309 7.16624 19.2305 8.98311 20.3878C9.27033 20.5707 9.57158 20.7626 9.88666 20.9636L9.88668 20.9636C10.0515 21.0455 10.2164 21.1273 10.2988 21.1273C10.5461 21.1273 10.7934 20.9636 10.9583 20.7182C11.2056 20.3091 11.1232 19.8182 10.711 19.5727C10.0037 19.1047 9.36305 18.6863 8.79426 18.3149C7.57308 17.5173 6.68324 16.9362 6.17708 16.5455C5.84735 16.3 5.76491 15.8909 6.01221 15.4818L7.24874 13.6C7.49604 13.2727 7.99065 13.1909 8.32039 13.4364L34.205 32.5818C35.1942 33.3182 36.3483 33.6455 37.5024 33.6455H48.8784C47.1473 34.4636 44.7566 35.2 42.6958 35.2H39.8106H37.4199C36.0185 35.2 34.6171 34.7909 33.4631 34.0545C28.6818 31.0273 19.7789 25.3818 13.2665 21.2091C12.8543 20.9636 12.3597 21.0455 12.1124 21.4545C11.8651 21.8636 11.9475 22.3545 12.3597 22.6C16.5377 25.2927 21.7156 28.5879 26.154 31.4125C28.4588 32.8793 30.5642 34.2191 32.2265 35.2818H10.9583C10.4637 35.2818 10.134 35.6091 10.134 36.1C10.134 36.5909 10.4637 36.9182 10.9583 36.9182H37.4199H39.8106H42.6133C45.9932 36.9182 50.8568 35.1182 52.0934 33.4C53.165 31.9273 53.2474 30.5364 52.5055 29.2273ZM34.2874 21.8636L27.8575 10.9818C28.1048 10.7364 28.517 10.4909 29.0116 10.4091C29.5062 10.3273 30.413 10.4091 31.2373 11.3091L31.7319 12.1273H30.99C30.4954 12.1273 30.1657 12.4545 30.1657 12.9455C30.1657 13.4364 30.4954 13.7636 30.99 13.7636H32.7211L33.5455 15.0727H32.886C32.3914 15.0727 32.0617 15.4 32.0617 15.8909C32.0617 16.3818 32.3914 16.7091 32.886 16.7091H34.5347L35.5239 18.2636H34.8645C34.3698 18.2636 34.0401 18.5909 34.0401 19.0818C34.0401 19.5727 34.3698 19.9 34.8645 19.9H36.5132L38.8213 23.5L34.2874 21.8636ZM11.4529 6.97273L8.89744 10.9818C8.73257 11.3091 8.815 11.7182 9.30961 12.1273C10.0515 12.7 10.4637 12.9455 10.4637 12.9455C11.1498 13.4751 11.4834 12.9552 11.6601 12.6799C11.6745 12.6575 11.6878 12.6367 11.7002 12.6182C11.8651 12.3727 11.9475 12.0455 11.9475 11.7182L11.4529 6.97273Z"/>
</mask>
<path fill-rule="evenodd" clip-rule="evenodd" d="M52.5055 29.2273C52.2582 28.7364 51.7636 28.3273 51.269 28.0818L45.004 25.7091L42.4485 24.8091C41.7066 24.4818 41.0471 23.9909 40.6349 23.3364L38.4916 19.8182C38.9038 19.7364 39.1511 19.4091 39.1511 19C39.1511 18.5091 38.8213 18.1818 38.3267 18.1818H37.5024L36.5132 16.5455C36.9253 16.4636 37.1726 16.1364 37.1726 15.7273C37.1726 15.2364 36.8429 14.9091 36.3483 14.9091H35.5239L34.6996 13.6C35.0293 13.5182 35.2766 13.1909 35.2766 12.8636C35.2766 12.3727 34.9469 12.0455 34.4523 12.0455H33.7104L32.6387 10.3273C32.6387 10.3273 32.6387 10.2455 32.5563 10.2455C31.5671 9.1 30.2481 8.52727 28.8467 8.69091C27.6102 8.85455 26.621 9.59091 26.2088 10.4909C26.1263 10.7364 26.1263 10.9818 26.2912 11.2273L33.1333 22.8455C33.2158 23.0091 33.3806 23.1727 33.5455 23.1727L41.9539 26.3636H42.0363L44.5093 27.2636L50.692 29.6364C50.8568 29.7182 51.0217 29.8 51.1041 30.0455C51.4339 30.7 51.4339 31.3545 51.0217 32.0091H37.5848C36.7605 32.0091 35.9361 31.7636 35.2766 31.2727L12.2773 14.3364C12.2773 14.3364 12.607 14.1727 13.0192 13.6C13.4314 13.0273 13.5962 12.2909 13.5962 11.5545L12.8543 4.68182L13.8435 3.12727C14.0908 2.8 14.5855 2.71818 14.9152 2.96364C14.9333 2.98166 14.9555 3.00277 14.9819 3.02794C15.3153 3.34557 16.3273 4.30964 18.5423 7.87273C19.7789 9.67273 21.7573 10.9818 23.983 11.3091C24.3952 11.3909 24.8898 11.0636 24.9723 10.6545C25.0547 10.2455 24.725 9.75455 24.3128 9.67273C22.5816 9.34546 20.9329 8.36364 19.9437 6.89091C17.0585 2.47273 16.2341 1.81818 15.9044 1.57273C14.8328 0.836364 13.3489 1.08182 12.5246 2.14545L7.49604 10.0818C7.1663 10.5727 7.08387 11.1455 7.1663 11.7182C6.67169 11.8818 6.17708 12.1273 5.92978 12.6182L4.61082 14.6636C3.86891 15.7273 4.19865 17.2 5.2703 17.9364C5.91094 18.4309 7.16624 19.2305 8.98311 20.3878C9.27033 20.5707 9.57158 20.7626 9.88666 20.9636L9.88668 20.9636C10.0515 21.0455 10.2164 21.1273 10.2988 21.1273C10.5461 21.1273 10.7934 20.9636 10.9583 20.7182C11.2056 20.3091 11.1232 19.8182 10.711 19.5727C10.0037 19.1047 9.36305 18.6863 8.79426 18.3149C7.57308 17.5173 6.68324 16.9362 6.17708 16.5455C5.84735 16.3 5.76491 15.8909 6.01221 15.4818L7.24874 13.6C7.49604 13.2727 7.99065 13.1909 8.32039 13.4364L34.205 32.5818C35.1942 33.3182 36.3483 33.6455 37.5024 33.6455H48.8784C47.1473 34.4636 44.7566 35.2 42.6958 35.2H39.8106H37.4199C36.0185 35.2 34.6171 34.7909 33.4631 34.0545C28.6818 31.0273 19.7789 25.3818 13.2665 21.2091C12.8543 20.9636 12.3597 21.0455 12.1124 21.4545C11.8651 21.8636 11.9475 22.3545 12.3597 22.6C16.5377 25.2927 21.7156 28.5879 26.154 31.4125C28.4588 32.8793 30.5642 34.2191 32.2265 35.2818H10.9583C10.4637 35.2818 10.134 35.6091 10.134 36.1C10.134 36.5909 10.4637 36.9182 10.9583 36.9182H37.4199H39.8106H42.6133C45.9932 36.9182 50.8568 35.1182 52.0934 33.4C53.165 31.9273 53.2474 30.5364 52.5055 29.2273ZM34.2874 21.8636L27.8575 10.9818C28.1048 10.7364 28.517 10.4909 29.0116 10.4091C29.5062 10.3273 30.413 10.4091 31.2373 11.3091L31.7319 12.1273H30.99C30.4954 12.1273 30.1657 12.4545 30.1657 12.9455C30.1657 13.4364 30.4954 13.7636 30.99 13.7636H32.7211L33.5455 15.0727H32.886C32.3914 15.0727 32.0617 15.4 32.0617 15.8909C32.0617 16.3818 32.3914 16.7091 32.886 16.7091H34.5347L35.5239 18.2636H34.8645C34.3698 18.2636 34.0401 18.5909 34.0401 19.0818C34.0401 19.5727 34.3698 19.9 34.8645 19.9H36.5132L38.8213 23.5L34.2874 21.8636ZM11.4529 6.97273L8.89744 10.9818C8.73257 11.3091 8.815 11.7182 9.30961 12.1273C10.0515 12.7 10.4637 12.9455 10.4637 12.9455C11.1498 13.4751 11.4834 12.9552 11.6601 12.6799C11.6745 12.6575 11.6878 12.6367 11.7002 12.6182C11.8651 12.3727 11.9475 12.0455 11.9475 11.7182L11.4529 6.97273Z" fill="white"/>
<path d="M51.269 28.0818L51.7135 27.1861L51.6693 27.1641L51.6232 27.1466L51.269 28.0818ZM52.5055 29.2273L51.6125 29.6772L51.6235 29.699L51.6355 29.7203L52.5055 29.2273ZM45.004 25.7091L45.3581 24.7739L45.3472 24.7698L45.3361 24.7659L45.004 25.7091ZM42.4485 24.8091L42.0449 25.724L42.08 25.7395L42.1163 25.7523L42.4485 24.8091ZM40.6349 23.3364L39.7809 23.8566L39.7847 23.863L39.7887 23.8692L40.6349 23.3364ZM38.4916 19.8182L38.2969 18.8373L36.8929 19.116L37.6376 20.3384L38.4916 19.8182ZM37.5024 18.1818L36.6466 18.6992L36.9384 19.1818H37.5024V18.1818ZM36.5132 16.5455L36.3184 15.5646L34.9195 15.8423L35.6574 17.0628L36.5132 16.5455ZM35.5239 14.9091L34.6777 15.442L34.9719 15.9091H35.5239V14.9091ZM34.6996 13.6L34.4588 12.6294L33.1164 12.9625L33.8534 14.1329L34.6996 13.6ZM33.7104 12.0455L32.8619 12.5747L33.1555 13.0455H33.7104V12.0455ZM32.6387 10.3273H31.6387V10.6136L31.7902 10.8565L32.6387 10.3273ZM32.5563 10.2455L31.7994 10.8991L32.0986 11.2455H32.5563V10.2455ZM28.8467 8.69091L28.7307 7.69766L28.7231 7.69855L28.7155 7.69955L28.8467 8.69091ZM26.2088 10.4909L25.2996 10.0745L25.2776 10.1225L25.2608 10.1725L26.2088 10.4909ZM26.2912 11.2273L27.1529 10.7198L27.1379 10.6943L27.1213 10.6697L26.2912 11.2273ZM33.1333 22.8455L34.0264 22.3955L34.0116 22.3663L33.995 22.338L33.1333 22.8455ZM33.5455 23.1727L33.9003 22.2378L33.7289 22.1727H33.5455V23.1727ZM41.9539 26.3636L41.5991 27.2986L41.7705 27.3636H41.9539V26.3636ZM42.0363 26.3636L42.3783 25.4239L42.2126 25.3636H42.0363V26.3636ZM44.5093 27.2636L44.8676 26.33L44.8595 26.3269L44.8513 26.3239L44.5093 27.2636ZM50.692 29.6364L51.1365 28.7406L51.0943 28.7196L51.0503 28.7028L50.692 29.6364ZM51.1041 30.0455L50.1562 30.3638L50.1789 30.4316L50.2111 30.4954L51.1041 30.0455ZM51.0217 32.0091V33.0091H51.5737L51.8679 32.542L51.0217 32.0091ZM35.2766 31.2727L35.8738 30.4706L35.8696 30.4675L35.2766 31.2727ZM12.2773 14.3364L11.8327 13.4406L10.3641 14.1694L11.6843 15.1416L12.2773 14.3364ZM13.5962 11.5545H14.5962V11.5007L14.5905 11.4472L13.5962 11.5545ZM12.8543 4.68182L12.0106 4.14496L11.8225 4.44067L11.8601 4.78915L12.8543 4.68182ZM13.8435 3.12727L13.0457 2.52439L13.0215 2.55648L12.9999 2.59041L13.8435 3.12727ZM14.9152 2.96364L15.6196 2.25388L15.5693 2.20387L15.5123 2.16148L14.9152 2.96364ZM14.9819 3.02794L15.6717 2.30392L15.6717 2.30392L14.9819 3.02794ZM18.5423 7.87273L17.6931 8.40069L17.7051 8.42011L17.7181 8.43895L18.5423 7.87273ZM23.983 11.3091L24.1777 10.3282L24.1532 10.3234L24.1285 10.3197L23.983 11.3091ZM24.3128 9.67273L24.5075 8.69183L24.4985 8.69013L24.3128 9.67273ZM19.9437 6.89091L19.1064 7.43773L19.1136 7.44849L19.9437 6.89091ZM15.9044 1.57273L16.5015 0.770572L16.4863 0.759266L16.4707 0.748542L15.9044 1.57273ZM12.5246 2.14545L11.7342 1.53287L11.7052 1.57027L11.6799 1.61024L12.5246 2.14545ZM7.49604 10.0818L8.32616 10.6394L8.33361 10.6283L8.34076 10.617L7.49604 10.0818ZM7.1663 11.7182L7.4804 12.6676L8.2754 12.4046L8.1561 11.5757L7.1663 11.7182ZM5.92978 12.6182L6.77021 13.1601L6.79897 13.1155L6.82286 13.0681L5.92978 12.6182ZM4.61082 14.6636L5.431 15.2357L5.4414 15.2208L5.45125 15.2056L4.61082 14.6636ZM5.2703 17.9364L5.88137 17.1448L5.85945 17.1279L5.83662 17.1122L5.2703 17.9364ZM8.98311 20.3878L9.52035 19.5443L9.52035 19.5443L8.98311 20.3878ZM9.88666 20.9636L9.34877 21.8067L9.39277 21.8347L9.43944 21.8581L9.88666 20.9636ZM9.88668 20.9636L9.43947 21.8581L9.44215 21.8594L9.88668 20.9636ZM10.9583 20.7182L11.7884 21.2758L11.8017 21.256L11.8141 21.2355L10.9583 20.7182ZM10.711 19.5727L10.1592 20.4067L10.179 20.4198L10.1994 20.4319L10.711 19.5727ZM8.79426 18.3149L9.34106 17.4776L9.34106 17.4776L8.79426 18.3149ZM6.17708 16.5455L6.78815 15.7539L6.78122 15.7485L6.7742 15.7433L6.17708 16.5455ZM6.01221 15.4818L5.17649 14.9327L5.16616 14.9484L5.15643 14.9645L6.01221 15.4818ZM7.24874 13.6L6.45091 12.9971L6.43108 13.0234L6.41301 13.0509L7.24874 13.6ZM8.32039 13.4364L7.72328 14.2385L7.72573 14.2403L8.32039 13.4364ZM34.205 32.5818L34.8021 31.7797L34.7996 31.7778L34.205 32.5818ZM48.8784 33.6455L49.3057 34.5496L48.8784 32.6455V33.6455ZM33.4631 34.0545L34.0009 33.2115L33.998 33.2097L33.4631 34.0545ZM13.2665 21.2091L13.806 20.3671L13.7922 20.3583L13.7781 20.3499L13.2665 21.2091ZM12.1124 21.4545L12.9682 21.9719L12.9682 21.9719L12.1124 21.4545ZM12.3597 22.6L12.9014 21.7594L12.8866 21.7499L12.8714 21.7408L12.3597 22.6ZM26.154 31.4125L25.6171 32.2562L25.6171 32.2562L26.154 31.4125ZM32.2265 35.2818V36.2818H35.6475L32.7651 34.4393L32.2265 35.2818ZM52.0934 33.4L51.2848 32.8116L51.2817 32.8159L52.0934 33.4ZM27.8575 10.9818L27.153 10.2721L26.6006 10.8204L26.9965 11.4905L27.8575 10.9818ZM34.2874 21.8636L33.4265 22.3724L33.6095 22.6821L33.9479 22.8043L34.2874 21.8636ZM29.0116 10.4091L28.8484 9.4225L28.8484 9.4225L29.0116 10.4091ZM31.2373 11.3091L32.0931 10.7918L32.0418 10.7068L31.9747 10.6337L31.2373 11.3091ZM31.7319 12.1273V13.1273H33.505L32.5877 11.6099L31.7319 12.1273ZM32.7211 13.7636L33.5673 13.2308L33.2732 12.7636H32.7211V13.7636ZM33.5455 15.0727V16.0727H35.357L34.3917 14.5399L33.5455 15.0727ZM34.5347 16.7091L35.3784 16.1722L35.0837 15.7091H34.5347V16.7091ZM35.5239 18.2636V19.2636H37.3456L36.3676 17.7268L35.5239 18.2636ZM36.5132 19.9L37.355 19.3603L37.0599 18.9H36.5132V19.9ZM38.8213 23.5L38.4818 24.4406L41.2537 25.441L39.6632 22.9603L38.8213 23.5ZM8.89744 10.9818L8.05418 10.4443L8.02706 10.4869L8.00436 10.5319L8.89744 10.9818ZM11.4529 6.97273L12.4475 6.86906L12.1504 4.01811L10.6097 6.43522L11.4529 6.97273ZM9.30961 12.1273L8.67227 12.8979L8.68523 12.9086L8.69855 12.9189L9.30961 12.1273ZM10.4637 12.9455L11.0748 12.1539L11.0271 12.1171L10.9754 12.0863L10.4637 12.9455ZM11.6601 12.6799L12.5017 13.22L12.5017 13.2199L11.6601 12.6799ZM11.7002 12.6182L12.5303 13.1758L12.5303 13.1758L11.7002 12.6182ZM11.9475 11.7182H12.9475V11.6662L12.9421 11.6145L11.9475 11.7182ZM50.8245 28.9776C51.1939 29.1609 51.4921 29.4383 51.6125 29.6772L53.3986 28.7774C53.0244 28.0345 52.3333 27.4936 51.7135 27.1861L50.8245 28.9776ZM44.6498 26.6443L50.9148 29.017L51.6232 27.1466L45.3581 24.7739L44.6498 26.6443ZM42.1163 25.7523L44.6718 26.6523L45.3361 24.7659L42.7807 23.8659L42.1163 25.7523ZM39.7887 23.8692C40.3355 24.7375 41.1765 25.341 42.0449 25.724L42.8521 23.8942C42.2366 23.6227 41.7587 23.2443 41.4811 22.8035L39.7887 23.8692ZM37.6376 20.3384L39.7809 23.8566L41.4889 22.8161L39.3456 19.2979L37.6376 20.3384ZM38.1511 19C38.1511 19.001 38.1524 18.961 38.1918 18.9111C38.2104 18.8876 38.2326 18.8687 38.2549 18.8554C38.277 18.8421 38.293 18.8381 38.2969 18.8373L38.6863 20.799C39.5964 20.6184 40.1511 19.8553 40.1511 19H38.1511ZM38.3267 19.1818C38.349 19.1818 38.2889 19.185 38.2199 19.1166C38.1891 19.0859 38.1697 19.053 38.1594 19.0264C38.1494 19.0007 38.1511 18.9894 38.1511 19H40.1511C40.1511 18.525 39.987 18.0525 39.6288 17.6971C39.2713 17.3422 38.799 17.1818 38.3267 17.1818V19.1818ZM37.5024 19.1818H38.3267V17.1818H37.5024V19.1818ZM35.6574 17.0628L36.6466 18.6992L38.3582 17.6645L37.3689 16.0281L35.6574 17.0628ZM36.1726 15.7273C36.1726 15.7283 36.1739 15.6883 36.2134 15.6384C36.232 15.6149 36.2542 15.596 36.2764 15.5826C36.2986 15.5694 36.3145 15.5654 36.3184 15.5646L36.7079 17.5263C37.6179 17.3457 38.1726 16.5825 38.1726 15.7273H36.1726ZM36.3483 15.9091C36.3706 15.9091 36.3105 15.9123 36.2415 15.8438C36.2106 15.8132 36.1913 15.7803 36.1809 15.7537C36.171 15.728 36.1726 15.7167 36.1726 15.7273H38.1726C38.1726 15.2523 38.0085 14.7798 37.6504 14.4243C37.2929 14.0695 36.8206 13.9091 36.3483 13.9091V15.9091ZM35.5239 15.9091H36.3483V13.9091H35.5239V15.9091ZM33.8534 14.1329L34.6777 15.442L36.3701 14.3762L35.5458 13.0671L33.8534 14.1329ZM34.2766 12.8636C34.2766 12.7796 34.3053 12.732 34.3214 12.7113C34.3384 12.6893 34.379 12.6492 34.4588 12.6294L34.9404 14.5706C35.7235 14.3763 36.2766 13.6429 36.2766 12.8636H34.2766ZM34.4523 13.0455C34.4746 13.0455 34.4145 13.0487 34.3455 12.9802C34.3146 12.9496 34.2952 12.9166 34.2849 12.89C34.275 12.8643 34.2766 12.8531 34.2766 12.8636H36.2766C36.2766 12.3887 36.1125 11.9162 35.7544 11.5607C35.3969 11.2059 34.9246 11.0455 34.4523 11.0455V13.0455ZM33.7104 13.0455H34.4523V11.0455H33.7104V13.0455ZM31.7902 10.8565L32.8619 12.5747L34.5589 11.5162L33.4872 9.79806L31.7902 10.8565ZM32.5563 11.2455C32.4034 11.2455 32.2222 11.2048 32.0521 11.0922C31.8879 10.9836 31.7902 10.8453 31.7353 10.7363C31.6825 10.6314 31.661 10.5384 31.6512 10.4801C31.6459 10.4486 31.6429 10.4201 31.6411 10.3955C31.6402 10.3831 31.6396 10.3712 31.6393 10.3599C31.6391 10.3543 31.6389 10.3487 31.6388 10.3433C31.6388 10.3406 31.6388 10.3379 31.6387 10.3352C31.6387 10.3339 31.6387 10.3325 31.6387 10.3312C31.6387 10.3306 31.6387 10.3299 31.6387 10.3292C31.6387 10.3289 31.6387 10.3284 31.6387 10.3283C31.6387 10.3278 31.6387 10.3273 32.6387 10.3273C33.6387 10.3273 33.6387 10.3268 33.6387 10.3263C33.6387 10.3261 33.6387 10.3256 33.6387 10.3253C33.6387 10.3246 33.6387 10.324 33.6387 10.3233C33.6387 10.3219 33.6387 10.3206 33.6387 10.3192C33.6387 10.3165 33.6386 10.3137 33.6386 10.3108C33.6385 10.305 33.6383 10.299 33.6381 10.2928C33.6377 10.2803 33.637 10.2667 33.636 10.252C33.6339 10.223 33.6302 10.1881 33.6236 10.1489C33.6112 10.0752 33.5846 9.96182 33.5215 9.83645C33.4563 9.70701 33.3431 9.54826 33.1557 9.42427C32.9625 9.29638 32.7503 9.24545 32.5563 9.24545V11.2455ZM28.9627 9.68416C29.9924 9.56392 30.9974 9.97034 31.7994 10.8991L33.3131 9.59185C32.1367 8.22966 30.5038 7.49062 28.7307 7.69766L28.9627 9.68416ZM27.118 10.9073C27.3707 10.3554 28.0418 9.80615 28.9779 9.68227L28.7155 7.69955C27.1786 7.90295 25.8712 8.82639 25.2996 10.0745L27.118 10.9073ZM27.1213 10.6697C27.1236 10.673 27.1314 10.6856 27.139 10.7071C27.1468 10.7288 27.1518 10.7524 27.1538 10.7754C27.1576 10.8214 27.1471 10.838 27.1567 10.8093L25.2608 10.1725C25.1043 10.6385 25.0837 11.2231 25.4611 11.7849L27.1213 10.6697ZM33.995 22.338L27.1529 10.7198L25.4295 11.7347L32.2716 23.3529L33.995 22.338ZM33.5455 22.1727C33.7892 22.1727 33.9293 22.2856 33.9565 22.3088C33.9947 22.3413 34.0129 22.3687 34.0264 22.3955L32.2402 23.2954C32.3362 23.4858 32.478 23.6769 32.6605 23.8321C32.832 23.978 33.137 24.1727 33.5455 24.1727V22.1727ZM42.3087 25.4287L33.9003 22.2378L33.1907 24.1077L41.5991 27.2986L42.3087 25.4287ZM42.0363 25.3636H41.9539V27.3636H42.0363V25.3636ZM44.8513 26.3239L42.3783 25.4239L41.6943 27.3033L44.1674 28.2033L44.8513 26.3239ZM51.0503 28.7028L44.8676 26.33L44.151 28.1972L50.3337 30.57L51.0503 28.7028ZM52.0521 29.7271C51.8293 29.0636 51.313 28.8282 51.1365 28.7406L50.2474 30.5321C50.2933 30.5549 50.3065 30.5618 50.315 30.5667C50.3198 30.5695 50.3044 30.5611 50.281 30.5412C50.2557 30.5197 50.2273 30.49 50.2018 30.4527C50.1766 30.4156 50.1628 30.3835 50.1562 30.3638L52.0521 29.7271ZM51.8679 32.542C52.4799 31.57 52.4734 30.5408 51.9972 29.5956L50.2111 30.4954C50.3944 30.8592 50.3878 31.1391 50.1755 31.4762L51.8679 32.542ZM37.5848 33.0091H51.0217V31.0091H37.5848V33.0091ZM34.6795 32.0749C35.5294 32.7075 36.5687 33.0091 37.5848 33.0091V31.0091C36.9523 31.0091 36.3428 30.8197 35.8737 30.4706L34.6795 32.0749ZM11.6843 15.1416L34.6837 32.078L35.8696 30.4675L12.8702 13.5311L11.6843 15.1416ZM12.2075 13.0159C12.0495 13.2355 11.9205 13.3585 11.8506 13.4172C11.8153 13.4468 11.794 13.461 11.7901 13.4635C11.7881 13.4648 11.7904 13.4632 11.7974 13.4592C11.8009 13.4573 11.8055 13.4547 11.8114 13.4515C11.8143 13.45 11.8176 13.4483 11.8211 13.4465C11.8229 13.4455 11.8248 13.4446 11.8267 13.4436C11.8277 13.4431 11.8287 13.4426 11.8297 13.4421C11.8302 13.4419 11.8307 13.4416 11.8312 13.4414C11.8314 13.4412 11.8318 13.4411 11.832 13.441C11.8324 13.4408 11.8327 13.4406 12.2773 14.3364C12.7218 15.2321 12.7222 15.2319 12.7226 15.2317C12.7227 15.2317 12.7231 15.2315 12.7234 15.2313C12.7239 15.2311 12.7245 15.2308 12.725 15.2305C12.7261 15.23 12.7272 15.2294 12.7283 15.2289C12.7306 15.2277 12.7329 15.2265 12.7353 15.2253C12.7401 15.2228 12.7453 15.2201 12.7507 15.2172C12.7616 15.2114 12.7738 15.2048 12.7871 15.1972C12.8137 15.182 12.845 15.1632 12.8804 15.1402C12.9512 15.0941 13.0381 15.0316 13.1368 14.9487C13.3348 14.7824 13.5767 14.5372 13.8308 14.1841L12.2075 13.0159ZM12.5962 11.5545C12.5962 12.1588 12.4586 12.6669 12.2075 13.0159L13.8308 14.1841C14.4041 13.3876 14.5962 12.423 14.5962 11.5545H12.5962ZM11.8601 4.78915L12.602 11.6619L14.5905 11.4472L13.8485 4.57449L11.8601 4.78915ZM12.9999 2.59041L12.0106 4.14496L13.698 5.21868L14.6872 3.66413L12.9999 2.59041ZM15.5123 2.16148C14.7215 1.57282 13.6088 1.77919 13.0457 2.52439L14.6414 3.73016C14.5954 3.79102 14.5409 3.81272 14.5033 3.81862C14.4643 3.82473 14.3924 3.82112 14.3181 3.76579L15.5123 2.16148ZM15.6717 2.30392C15.6428 2.27635 15.6289 2.26312 15.6196 2.25388L14.2107 3.67339C14.2377 3.7002 14.2683 3.7292 14.2922 3.75197L15.6717 2.30392ZM19.3916 7.34476C17.144 3.72933 16.081 2.69384 15.6717 2.30392L14.2922 3.75196C14.5497 3.99729 15.5105 4.88994 17.6931 8.40069L19.3916 7.34476ZM24.1285 10.3197C22.1945 10.0354 20.4553 8.89128 19.3666 7.3065L17.7181 8.43895C19.1025 10.4542 21.3201 11.9283 23.8376 12.2985L24.1285 10.3197ZM23.992 10.457C24.0045 10.395 24.0276 10.3588 24.0374 10.3456C24.0471 10.3325 24.052 10.3303 24.0495 10.3319C24.047 10.3336 24.0503 10.3304 24.0646 10.3269C24.079 10.3235 24.1187 10.3165 24.1777 10.3282L23.7883 12.29C24.3108 12.3937 24.8025 12.2318 25.1531 11.9999C25.5032 11.7682 25.8467 11.3776 25.9526 10.8521L23.992 10.457ZM24.1181 10.6536C24.059 10.6419 24.0244 10.6201 24.0118 10.6109C24.0048 10.6058 24.0011 10.6021 23.9997 10.6006C23.9989 10.5998 23.9985 10.5993 23.9982 10.599C23.998 10.5987 23.9979 10.5986 23.9979 10.5985C23.9978 10.5984 23.9977 10.5982 23.9975 10.5978C23.9973 10.5975 23.9969 10.5967 23.9963 10.5955C23.9953 10.5932 23.9931 10.5878 23.9908 10.5787C23.9867 10.5619 23.9794 10.5191 23.992 10.457L25.9526 10.8521C26.0586 10.326 25.8927 9.8326 25.6581 9.48332C25.4232 9.13355 25.0304 8.79567 24.5075 8.69187L24.1181 10.6536ZM19.1136 7.44849C20.271 9.17159 22.1682 10.285 24.127 10.6553L24.4985 8.69013C22.9951 8.4059 21.5949 7.55568 20.7738 6.33332L19.1136 7.44849ZM15.3073 2.37488C15.4807 2.50395 16.2223 3.02115 19.1064 7.43768L20.781 6.34414C17.8947 1.9243 16.9876 1.13241 16.5015 0.770572L15.3073 2.37488ZM13.315 2.75804C13.8281 2.09593 14.7212 1.97305 15.3381 2.39691L16.4707 0.748542C14.9443 -0.300322 12.8697 0.0677109 11.7342 1.53287L13.315 2.75804ZM8.34076 10.617L13.3693 2.68067L11.6799 1.61024L6.65133 9.5466L8.34076 10.617ZM8.1561 11.5757C8.10043 11.1889 8.16454 10.88 8.32616 10.6394L6.66592 9.52423C6.16807 10.2654 6.06731 11.102 6.1765 11.8606L8.1561 11.5757ZM6.82286 13.0681C6.88124 12.9522 7.03666 12.8144 7.4804 12.6676L6.85221 10.7688C6.30673 10.9493 5.47293 11.3024 5.0367 12.1683L6.82286 13.0681ZM5.45125 15.2056L6.77021 13.1601L5.08935 12.0763L3.7704 14.1217L5.45125 15.2056ZM5.83662 17.1122C5.18188 16.6623 5.03405 15.8048 5.431 15.2357L3.79064 14.0915C2.70376 15.6497 3.21541 17.7377 4.70398 18.7605L5.83662 17.1122ZM9.52035 19.5443C7.67845 18.3711 6.47611 17.6039 5.88137 17.1448L4.65923 18.7279C5.34577 19.2579 6.65403 20.0899 8.44588 21.2312L9.52035 19.5443ZM10.4245 20.1206C10.1091 19.9193 9.80753 19.7273 9.52035 19.5443L8.44588 21.2312C8.73313 21.4142 9.03407 21.6059 9.34877 21.8067L10.4245 20.1206ZM10.3339 20.0692L10.3339 20.0692L9.43944 21.8581L9.43947 21.8581L10.3339 20.0692ZM10.2988 20.1273C10.3345 20.1273 10.365 20.1295 10.389 20.132C10.4132 20.1346 10.4336 20.1379 10.4494 20.1409C10.4801 20.1467 10.5019 20.1529 10.512 20.1559C10.5228 20.1592 10.5283 20.1613 10.5275 20.161C10.5269 20.1608 10.5229 20.1593 10.5151 20.1559C10.4986 20.1489 10.4751 20.1382 10.442 20.1223C10.4089 20.1064 10.3736 20.0889 10.3312 20.0679L9.44215 21.8594C9.51712 21.8966 9.62775 21.9519 9.73225 21.9964C9.78666 22.0195 10.0261 22.1273 10.2988 22.1273V20.1273ZM10.1282 20.1606C10.1153 20.1798 10.1096 20.1793 10.1255 20.1693C10.1412 20.1593 10.2001 20.1273 10.2988 20.1273V22.1273C10.9828 22.1273 11.5041 21.6991 11.7884 21.2758L10.1282 20.1606ZM10.1994 20.4319C10.1875 20.4249 10.1651 20.4078 10.1434 20.3773C10.1219 20.3471 10.1081 20.3135 10.1017 20.2816C10.0887 20.2172 10.1096 20.1891 10.1025 20.2008L11.8141 21.2355C12.3023 20.4279 12.1848 19.2865 11.2227 18.7135L10.1994 20.4319ZM8.24746 19.1521C8.8164 19.5237 9.45474 19.9406 10.1592 20.4067L11.2628 18.7388C10.5527 18.2689 9.90971 17.849 9.34106 17.4776L8.24746 19.1521ZM5.56602 17.337C6.11191 17.7584 7.0457 18.3673 8.24746 19.1521L9.34106 17.4776C8.10047 16.6674 7.25457 16.1139 6.78815 15.7539L5.56602 17.337ZM5.15643 14.9645C4.92998 15.3391 4.81531 15.7835 4.89207 16.2406C4.96949 16.7017 5.22726 17.0851 5.57997 17.3476L6.7742 15.7433C6.78293 15.7498 6.80233 15.7667 6.82209 15.7979C6.84224 15.8297 6.85754 15.8682 6.86445 15.9094C6.87938 15.9983 6.84714 16.0337 6.868 15.9992L5.15643 14.9645ZM6.41301 13.0509L5.17649 14.9327L6.84794 16.031L8.08447 14.1491L6.41301 13.0509ZM8.91751 12.6342C8.12672 12.0456 7.01402 12.2519 6.45091 12.9971L8.04657 14.2029C8.00058 14.2637 7.94613 14.2855 7.90848 14.2914C7.86949 14.2975 7.7976 14.2938 7.72328 14.2385L8.91751 12.6342ZM34.7996 31.7778L8.91505 12.6324L7.72573 14.2403L33.6103 33.3858L34.7996 31.7778ZM37.5024 32.6455C36.5388 32.6455 35.6 32.3736 34.8021 31.7797L33.6079 33.384C34.7884 34.2628 36.1578 34.6455 37.5024 34.6455V32.6455ZM48.8784 32.6455H37.5024V34.6455H48.8784V32.6455ZM42.6958 36.2C44.9546 36.2 47.4953 35.4052 49.3057 34.5496L48.4511 32.7413C46.7992 33.5221 44.5587 34.2 42.6958 34.2V36.2ZM39.8106 36.2H42.6958V34.2H39.8106V36.2ZM37.4199 36.2H39.8106V34.2H37.4199V36.2ZM32.9252 34.8976C34.2418 35.7376 35.8302 36.2 37.4199 36.2V34.2C36.2069 34.2 34.9925 33.8442 34.0009 33.2115L32.9252 34.8976ZM12.727 22.0511C19.2418 26.2254 28.1468 31.8721 32.9281 34.8994L33.998 33.2097C29.2168 30.1824 20.3159 24.5382 13.806 20.3671L12.727 22.0511ZM12.9682 21.9719C12.9603 21.9849 12.9428 22.0071 12.9129 22.0281C12.8834 22.0487 12.8515 22.0614 12.8223 22.0672C12.7637 22.0789 12.7407 22.0599 12.7548 22.0683L13.7781 20.3499C12.9747 19.8715 11.8348 19.9808 11.2566 20.9372L12.9682 21.9719ZM12.8714 21.7408C12.8832 21.7479 12.9056 21.7649 12.9273 21.7954C12.9488 21.8256 12.9626 21.8592 12.969 21.8911C12.982 21.9556 12.9611 21.9836 12.9682 21.9719L11.2566 20.9372C10.7684 21.7448 10.8859 22.8862 11.848 23.4592L12.8714 21.7408ZM26.6909 30.5689C22.2518 27.7438 17.0765 24.4502 12.9014 21.7594L11.818 23.4406C15.9988 26.1351 21.1794 29.432 25.6171 32.2562L26.6909 30.5689ZM32.7651 34.4393C31.1017 33.3759 28.9954 32.0354 26.6909 30.5689L25.6171 32.2562C27.9222 33.7231 30.0266 35.0624 31.6879 36.1244L32.7651 34.4393ZM10.9583 36.2818H32.2265V34.2818H10.9583V36.2818ZM11.134 36.1C11.134 36.0894 11.1356 36.1007 11.1257 36.1264C11.1153 36.153 11.096 36.1859 11.0651 36.2166C10.9961 36.285 10.936 36.2818 10.9583 36.2818V34.2818C10.486 34.2818 10.0137 34.4422 9.65621 34.7971C9.29805 35.1525 9.13396 35.625 9.13396 36.1H11.134ZM10.9583 35.9182C10.936 35.9182 10.9961 35.915 11.0651 35.9834C11.096 36.0141 11.1153 36.047 11.1256 36.0736C11.1356 36.0993 11.134 36.1106 11.134 36.1H9.13396C9.13396 36.575 9.29805 37.0475 9.65621 37.4029C10.0137 37.7578 10.486 37.9182 10.9583 37.9182V35.9182ZM37.4199 35.9182H10.9583V37.9182H37.4199V35.9182ZM39.8106 35.9182H37.4199V37.9182H39.8106V35.9182ZM42.6133 35.9182H39.8106V37.9182H42.6133V35.9182ZM51.2817 32.8159C51.0881 33.0848 50.6857 33.4357 50.0505 33.8175C49.4325 34.189 48.6617 34.5498 47.8094 34.8658C46.0932 35.5021 44.1526 35.9182 42.6133 35.9182V37.9182C44.4539 37.9182 46.6351 37.4343 48.5047 36.741C49.4454 36.3923 50.3336 35.9809 51.0809 35.5316C51.8111 35.0927 52.4803 34.5743 52.905 33.9841L51.2817 32.8159ZM51.6355 29.7203C51.9198 30.2219 52.0251 30.6959 51.9835 31.1637C51.9412 31.639 51.7401 32.1859 51.2848 32.8116L52.9019 33.9884C53.5183 33.1414 53.8942 32.2564 53.9756 31.3408C54.0577 30.4177 53.8332 29.5417 53.3755 28.7342L51.6355 29.7203ZM26.9965 11.4905L33.4265 22.3724L35.1483 21.3549L28.7184 10.4731L26.9965 11.4905ZM28.8484 9.4225C28.1373 9.54013 27.539 9.88899 27.153 10.2721L28.5619 11.6916C28.6706 11.5837 28.8967 11.4417 29.1748 11.3957L28.8484 9.4225ZM31.9747 10.6337C30.8932 9.4529 29.6321 9.29286 28.8484 9.4225L29.1748 11.3957C29.3803 11.3617 29.9327 11.3653 30.4999 11.9845L31.9747 10.6337ZM32.5877 11.6099L32.0931 10.7918L30.3815 11.8264L30.8761 12.6446L32.5877 11.6099ZM30.99 13.1273H31.7319V11.1273H30.99V13.1273ZM31.1657 12.9455C31.1657 12.9349 31.1673 12.9461 31.1573 12.9718C31.147 12.9984 31.1277 13.0314 31.0968 13.062C31.0278 13.1305 30.9677 13.1273 30.99 13.1273V11.1273C30.5177 11.1273 30.0454 11.2877 29.6879 11.6425C29.3297 11.998 29.1657 12.4705 29.1657 12.9455H31.1657ZM30.99 12.7636C30.9677 12.7636 31.0278 12.7604 31.0968 12.8289C31.1277 12.8595 31.147 12.8925 31.1573 12.9191C31.1673 12.9448 31.1657 12.956 31.1657 12.9455H29.1657C29.1657 13.4204 29.3297 13.8929 29.6879 14.2484C30.0454 14.6032 30.5177 14.7636 30.99 14.7636V12.7636ZM32.7211 12.7636H30.99V14.7636H32.7211V12.7636ZM34.3917 14.5399L33.5673 13.2308L31.8749 14.2965L32.6993 15.6056L34.3917 14.5399ZM32.886 16.0727H33.5455V14.0727H32.886V16.0727ZM33.0617 15.8909C33.0617 15.8804 33.0633 15.8916 33.0534 15.9173C33.043 15.9439 33.0237 15.9768 32.9928 16.0075C32.9238 16.0759 32.8637 16.0727 32.886 16.0727V14.0727C32.4137 14.0727 31.9414 14.2331 31.5839 14.588C31.2258 14.9435 31.0617 15.4159 31.0617 15.8909H33.0617ZM32.886 15.7091C32.8637 15.7091 32.9238 15.7059 32.9928 15.7743C33.0237 15.805 33.043 15.8379 33.0534 15.8645C33.0633 15.8902 33.0617 15.9015 33.0617 15.8909H31.0617C31.0617 16.3659 31.2258 16.8384 31.5839 17.1938C31.9414 17.5487 32.4137 17.7091 32.886 17.7091V15.7091ZM34.5347 15.7091H32.886V17.7091H34.5347V15.7091ZM36.3676 17.7268L35.3784 16.1722L33.691 17.246L34.6803 18.8005L36.3676 17.7268ZM34.8645 19.2636H35.5239V17.2636H34.8645V19.2636ZM35.0401 19.0818C35.0401 19.0713 35.0417 19.0825 35.0318 19.1082C35.0215 19.1348 35.0021 19.1678 34.9712 19.1984C34.9023 19.2669 34.8422 19.2636 34.8645 19.2636V17.2636C34.3921 17.2636 33.9198 17.4241 33.5624 17.7789C33.2042 18.1344 33.0401 18.6069 33.0401 19.0818H35.0401ZM34.8645 18.9C34.8421 18.9 34.9023 18.8968 34.9712 18.9652C35.0021 18.9959 35.0215 19.0288 35.0318 19.0554C35.0417 19.0811 35.0401 19.0924 35.0401 19.0818H33.0401C33.0401 19.5568 33.2042 20.0293 33.5624 20.3848C33.9198 20.7396 34.3921 20.9 34.8645 20.9V18.9ZM36.5132 18.9H34.8645V20.9H36.5132V18.9ZM39.6632 22.9603L37.355 19.3603L35.6713 20.4397L37.9795 24.0397L39.6632 22.9603ZM33.9479 22.8043L38.4818 24.4406L39.1608 22.5594L34.6269 20.923L33.9479 22.8043ZM9.7407 11.5193L12.2962 7.51024L10.6097 6.43522L8.05418 10.4443L9.7407 11.5193ZM9.94696 11.3567C9.79812 11.2336 9.79602 11.1794 9.80915 11.2207C9.81639 11.2434 9.82301 11.2806 9.81913 11.3262C9.8153 11.3712 9.80271 11.4075 9.79052 11.4317L8.00436 10.5319C7.80795 10.9218 7.75974 11.3759 7.90329 11.8271C8.04008 12.257 8.3265 12.6119 8.67227 12.8979L9.94696 11.3567ZM10.4637 12.9455C10.9754 12.0863 10.9755 12.0863 10.9756 12.0864C10.9756 12.0864 10.9757 12.0865 10.9757 12.0865C10.9759 12.0866 10.976 12.0866 10.9761 12.0867C10.9763 12.0868 10.9765 12.0869 10.9766 12.087C10.977 12.0872 10.9772 12.0874 10.9773 12.0874C10.9775 12.0876 10.9774 12.0875 10.9768 12.0871C10.9757 12.0865 10.973 12.0848 10.9688 12.0822C10.9603 12.077 10.9454 12.0678 10.9245 12.0544C10.8826 12.0278 10.8163 11.9847 10.7267 11.9239C10.5475 11.8022 10.2754 11.6095 9.92068 11.3357L8.69855 12.9189C9.08572 13.2177 9.39068 13.4342 9.60308 13.5784C9.70927 13.6505 9.79232 13.7046 9.85091 13.7419C9.88021 13.7605 9.90339 13.775 9.9203 13.7854C9.92876 13.7906 9.93565 13.7948 9.94094 13.798C9.94359 13.7996 9.94584 13.8009 9.94769 13.802C9.94862 13.8026 9.94944 13.8031 9.95017 13.8035C9.95053 13.8037 9.95087 13.8039 9.95118 13.8041C9.95134 13.8042 9.95149 13.8043 9.95163 13.8044C9.9517 13.8044 9.95181 13.8045 9.95184 13.8045C9.95195 13.8046 9.95205 13.8046 10.4637 12.9455ZM10.8185 12.1398C10.771 12.2138 10.7497 12.2447 10.731 12.2669C10.7127 12.2885 10.7324 12.2577 10.7962 12.2249C10.8312 12.2069 10.877 12.1897 10.9314 12.1806C10.9864 12.1714 11.0367 12.1727 11.0773 12.1793C11.1557 12.1922 11.1571 12.2175 11.0748 12.1539L9.85264 13.737C10.1133 13.9383 10.4137 14.0971 10.7531 14.1529C11.1097 14.2115 11.4372 14.144 11.7096 14.0041C12.18 13.7627 12.4408 13.3148 12.5017 13.22L10.8185 12.1398ZM10.8701 12.0606C10.8507 12.0895 10.8314 12.1197 10.8185 12.1398L12.5017 13.2199C12.5176 13.1952 12.5249 13.1838 12.5303 13.1758L10.8701 12.0606ZM10.9475 11.7182C10.9475 11.8957 10.8998 12.0164 10.8701 12.0606L12.5303 13.1758C12.8304 12.7291 12.9475 12.1952 12.9475 11.7182H10.9475ZM10.4583 7.07639L10.9529 11.8218L12.9421 11.6145L12.4475 6.86906L10.4583 7.07639Z" fill="#191920" mask="url(#path-4-outside-1_0_4)"/>
</g>
</g>
</g>
</g>
</svg>
