<svg width="53" height="36" viewBox="0 0 53 36" fill="none" xmlns="http://www.w3.org/2000/svg">
<g id="Logo">
<g id="noun_Running_1473810">
<g id="Group">
<path id="Path" d="M18.5314 30.9273C18.5314 30.4364 18.2017 30.1091 17.7071 30.1091H3.36341C2.8688 30.1091 2.53906 30.4364 2.53906 30.9273C2.53906 31.4182 2.8688 31.7455 3.36341 31.7455H17.7071C18.2017 31.7455 18.5314 31.3364 18.5314 30.9273Z" fill="white"/>
<path id="Path_2" d="M6.66079 34.2H5.01209C4.51748 34.2 4.18774 34.5273 4.18774 35.0182C4.18774 35.5091 4.51748 35.8364 5.01209 35.8364H6.66079C7.1554 35.8364 7.48514 35.5091 7.48514 35.0182C7.48514 34.5273 7.1554 34.2 6.66079 34.2Z" fill="white"/>
<path id="Path_3" d="M10.5353 26.8364C10.5353 26.3455 10.2055 26.0182 9.71092 26.0182H1.71473C1.22012 26.0182 0.890381 26.3455 0.890381 26.8364C0.890381 27.3273 1.22012 27.6545 1.71473 27.6545H9.71092C10.2055 27.6545 10.5353 27.2455 10.5353 26.8364Z" fill="white"/>
<path id="Shape" fill-rule="evenodd" clip-rule="evenodd" d="M51.5055 28.2273C51.2582 27.7364 50.7636 27.3273 50.269 27.0818L44.004 24.7091L41.4485 23.8091C40.7066 23.4818 40.0471 22.9909 39.6349 22.3364L37.4916 18.8182C37.9038 18.7364 38.1511 18.4091 38.1511 18C38.1511 17.5091 37.8213 17.1818 37.3267 17.1818H36.5024L35.5132 15.5455C35.9253 15.4636 36.1726 15.1364 36.1726 14.7273C36.1726 14.2364 35.8429 13.9091 35.3483 13.9091H34.5239L33.6996 12.6C34.0293 12.5182 34.2766 12.1909 34.2766 11.8636C34.2766 11.3727 33.9469 11.0455 33.4523 11.0455H32.7104L31.6387 9.32727C31.6387 9.32727 31.6387 9.24545 31.5563 9.24545C30.5671 8.1 29.2481 7.52727 27.8467 7.69091C26.6102 7.85455 25.621 8.59091 25.2088 9.49091C25.1263 9.73636 25.1263 9.98182 25.2912 10.2273L32.1333 21.8455C32.2158 22.0091 32.3806 22.1727 32.5455 22.1727L40.9539 25.3636H41.0363L43.5093 26.2636L49.692 28.6364C49.8568 28.7182 50.0217 28.8 50.1041 29.0455C50.4339 29.7 50.4339 30.3545 50.0217 31.0091H36.5848C35.7605 31.0091 34.9361 30.7636 34.2766 30.2727L11.2773 13.3364C11.2773 13.3364 11.607 13.1727 12.0192 12.6C12.4314 12.0273 12.5962 11.2909 12.5962 10.5545L11.8543 3.68182L12.8435 2.12727C13.0908 1.8 13.5855 1.71818 13.9152 1.96364C13.9333 1.98166 13.9555 2.00277 13.9819 2.02794C14.3153 2.34557 15.3273 3.30964 17.5423 6.87273C18.7789 8.67273 20.7573 9.98182 22.983 10.3091C23.3952 10.3909 23.8898 10.0636 23.9723 9.65455C24.0547 9.24545 23.725 8.75455 23.3128 8.67273C21.5816 8.34546 19.9329 7.36364 18.9437 5.89091C16.0585 1.47273 15.2341 0.818182 14.9044 0.572727C13.8328 -0.163636 12.3489 0.0818182 11.5246 1.14545L6.49604 9.08182C6.1663 9.57273 6.08387 10.1455 6.1663 10.7182C5.67169 10.8818 5.17708 11.1273 4.92978 11.6182L3.61082 13.6636C2.86891 14.7273 3.19865 16.2 4.2703 16.9364C4.91094 17.4309 6.16624 18.2305 7.98311 19.3878C8.27033 19.5707 8.57158 19.7626 8.88666 19.9636L8.88668 19.9636C9.05154 20.0455 9.2164 20.1273 9.29883 20.1273C9.54614 20.1273 9.79344 19.9636 9.95831 19.7182C10.2056 19.3091 10.1232 18.8182 9.71101 18.5727C9.00374 18.1047 8.36305 17.6863 7.79426 17.3149C6.57308 16.5173 5.68324 15.9362 5.17708 15.5455C4.84735 15.3 4.76491 14.8909 5.01221 14.4818L6.24874 12.6C6.49604 12.2727 6.99065 12.1909 7.32039 12.4364L33.205 31.5818C34.1942 32.3182 35.3483 32.6455 36.5024 32.6455H47.8784C46.1473 33.4636 43.7566 34.2 41.6958 34.2H38.8106H36.4199C35.0185 34.2 33.6171 33.7909 32.4631 33.0545C27.6818 30.0273 18.7789 24.3818 12.2665 20.2091C11.8543 19.9636 11.3597 20.0455 11.1124 20.4545C10.8651 20.8636 10.9475 21.3545 11.3597 21.6C15.5377 24.2927 20.7156 27.5879 25.154 30.4125C27.4588 31.8793 29.5642 33.2191 31.2265 34.2818H9.95831C9.4637 34.2818 9.13396 34.6091 9.13396 35.1C9.13396 35.5909 9.4637 35.9182 9.95831 35.9182H36.4199H38.8106H41.6133C44.9932 35.9182 49.8568 34.1182 51.0934 32.4C52.165 30.9273 52.2474 29.5364 51.5055 28.2273ZM33.2874 20.8636L26.8575 9.98182C27.1048 9.73636 27.517 9.49091 28.0116 9.40909C28.5062 9.32727 29.413 9.40909 30.2373 10.3091L30.7319 11.1273H29.99C29.4954 11.1273 29.1657 11.4545 29.1657 11.9455C29.1657 12.4364 29.4954 12.7636 29.99 12.7636H31.7211L32.5455 14.0727H31.886C31.3914 14.0727 31.0617 14.4 31.0617 14.8909C31.0617 15.3818 31.3914 15.7091 31.886 15.7091H33.5347L34.5239 17.2636H33.8645C33.3698 17.2636 33.0401 17.5909 33.0401 18.0818C33.0401 18.5727 33.3698 18.9 33.8645 18.9H35.5132L37.8213 22.5L33.2874 20.8636ZM10.4529 5.97273L7.89744 9.98182C7.73257 10.3091 7.815 10.7182 8.30961 11.1273C9.05153 11.7 9.4637 11.9455 9.4637 11.9455C10.1498 12.4751 10.4834 11.9552 10.6601 11.6799C10.6745 11.6575 10.6878 11.6367 10.7002 11.6182C10.8651 11.3727 10.9475 11.0455 10.9475 10.7182L10.4529 5.97273Z" fill="white"/>
</g>
</g>
</g>
</svg>
